<svg width="22" height="22" viewBox="0 0 22 22" fill="none" xmlns="http://www.w3.org/2000/svg">
<path d="M5.50005 13.2C6.71508 13.2 7.70005 12.215 7.70005 11C7.70005 9.78496 6.71508 8.79999 5.50005 8.79999C4.28502 8.79999 3.30005 9.78496 3.30005 11C3.30005 12.215 4.28502 13.2 5.50005 13.2Z" fill="#D1D5DB"/>
<path d="M11 13.2C12.2151 13.2 13.2 12.215 13.2 11C13.2 9.78496 12.2151 8.79999 11 8.79999C9.78502 8.79999 8.80005 9.78496 8.80005 11C8.80005 12.215 9.78502 13.2 11 13.2Z" fill="#D1D5DB"/>
<path d="M16.5 13.2C17.7151 13.2 18.7 12.215 18.7 11C18.7 9.78496 17.7151 8.79999 16.5 8.79999C15.285 8.79999 14.3 9.78496 14.3 11C14.3 12.215 15.285 13.2 16.5 13.2Z" fill="#D1D5DB"/>
</svg>
