<svg width="26" height="26" viewBox="0 0 26 26" fill="none" xmlns="http://www.w3.org/2000/svg">
<path d="M20.5833 11.9167C20.5833 13.2059 20.215 14.4084 19.6083 15.47L18.2758 14.1375C18.5683 13.4659 18.7417 12.7184 18.7417 11.9167H20.5833ZM16.25 12.09L9.75 5.61169V5.41669C9.75 4.55473 10.0924 3.72808 10.7019 3.11859C11.3114 2.5091 12.138 2.16669 13 2.16669C13.862 2.16669 14.6886 2.5091 15.2981 3.11859C15.9076 3.72808 16.25 4.55473 16.25 5.41669V12.09ZM4.62583 3.25002L22.75 21.3742L21.3742 22.75L16.835 18.2109C16.0008 18.7092 15.0692 19.045 14.0833 19.1967V22.75H11.9167V19.1967C8.36333 18.6659 5.41667 15.6109 5.41667 11.9167H7.25833C7.25833 15.1667 10.01 17.4417 13 17.4417C13.8775 17.4417 14.7333 17.2359 15.5025 16.8784L13.7042 15.08L13 15.1667C12.138 15.1667 11.3114 14.8243 10.7019 14.2148C10.0924 13.6053 9.75 12.7786 9.75 11.9167V11.1367L3.25 4.62585L4.62583 3.25002Z" fill="#D9706C"/>
</svg>
