<svg width="26" height="26" viewBox="0 0 26 26" fill="none" xmlns="http://www.w3.org/2000/svg">
<path d="M13 2.16669C13.862 2.16669 14.6886 2.5091 15.2981 3.11859C15.9076 3.72808 16.25 4.55473 16.25 5.41669V11.9167C16.25 12.7786 15.9076 13.6053 15.2981 14.2148C14.6886 14.8243 13.862 15.1667 13 15.1667C12.1381 15.1667 11.3114 14.8243 10.7019 14.2148C10.0924 13.6053 9.75002 12.7786 9.75002 11.9167V5.41669C9.75002 4.55473 10.0924 3.72808 10.7019 3.11859C11.3114 2.5091 12.1381 2.16669 13 2.16669ZM20.5834 11.9167C20.5834 15.7409 17.7559 18.8934 14.0834 19.4242V22.75H11.9167V19.4242C8.24419 18.8934 5.41669 15.7409 5.41669 11.9167H7.58335C7.58335 13.3533 8.15404 14.731 9.16986 15.7468C10.1857 16.7627 11.5634 17.3334 13 17.3334C14.4366 17.3334 15.8144 16.7627 16.8302 15.7468C17.846 14.731 18.4167 13.3533 18.4167 11.9167H20.5834Z" fill="#5848BC"/>
</svg>
