<svg width="16" height="16" viewBox="0 0 16 16" fill="none" xmlns="http://www.w3.org/2000/svg">
<path d="M7.1667 8.69333C7.1667 8.31333 6.85336 8 6.47336 8C6.09336 8 5.78003 8.31333 5.78003 8.69333C5.78003 8.87722 5.85308 9.05357 5.9831 9.18359C6.11313 9.31362 6.28948 9.38667 6.47336 9.38667C6.65725 9.38667 6.8336 9.31362 6.96362 9.18359C7.09365 9.05357 7.1667 8.87722 7.1667 8.69333ZM9.39336 10.2733C9.09336 10.5733 8.45336 10.68 8.00003 10.68C7.5467 10.68 6.9067 10.5733 6.6067 10.2733C6.59048 10.256 6.57087 10.2421 6.54908 10.2327C6.52729 10.2232 6.50379 10.2183 6.48003 10.2183C6.45627 10.2183 6.43277 10.2232 6.41098 10.2327C6.38919 10.2421 6.36958 10.256 6.35336 10.2733C6.336 10.2895 6.32216 10.3092 6.3127 10.331C6.30323 10.3527 6.29835 10.3762 6.29835 10.4C6.29835 10.4238 6.30323 10.4473 6.3127 10.469C6.32216 10.4908 6.336 10.5105 6.35336 10.5267C6.8267 11 7.73336 11.04 8.00003 11.04C8.2667 11.04 9.17336 11 9.6467 10.5267C9.66406 10.5105 9.6779 10.4908 9.68736 10.469C9.69682 10.4473 9.70171 10.4238 9.70171 10.4C9.70171 10.3762 9.69682 10.3527 9.68736 10.331C9.6779 10.3092 9.66406 10.2895 9.6467 10.2733C9.58003 10.2067 9.4667 10.2067 9.39336 10.2733ZM9.5267 8C9.1467 8 8.83336 8.31333 8.83336 8.69333C8.83336 9.07333 9.1467 9.38667 9.5267 9.38667C9.9067 9.38667 10.22 9.07333 10.22 8.69333C10.22 8.31333 9.91336 8 9.5267 8Z" fill="#9CA3AF"/>
<path d="M7.99998 1.33334C4.31998 1.33334 1.33331 4.32001 1.33331 8.00001C1.33331 11.68 4.31998 14.6667 7.99998 14.6667C11.68 14.6667 14.6666 11.68 14.6666 8.00001C14.6666 4.32001 11.68 1.33334 7.99998 1.33334ZM11.8666 8.88668C11.88 8.98001 11.8866 9.08001 11.8866 9.18001C11.8866 10.6733 10.1466 11.8867 7.99998 11.8867C5.85331 11.8867 4.11331 10.6733 4.11331 9.18001C4.11331 9.08001 4.11998 8.98001 4.13331 8.88668C3.79331 8.73334 3.55998 8.39334 3.55998 8.00001C3.55899 7.80884 3.61451 7.62164 3.71957 7.46192C3.82464 7.30221 3.97455 7.1771 4.15048 7.10231C4.32642 7.02752 4.52053 7.00638 4.70844 7.04156C4.89635 7.07673 5.06968 7.16665 5.20665 7.30001C5.87998 6.81334 6.81331 6.50668 7.84665 6.47334L8.33998 4.14668C8.34665 4.10001 8.37331 4.06001 8.41331 4.04001C8.45331 4.01334 8.49998 4.00668 8.54665 4.01334L10.16 4.36001C10.2147 4.24906 10.2981 4.15478 10.4015 4.08693C10.505 4.01908 10.6247 3.98014 10.7483 3.97416C10.8718 3.96817 10.9947 3.99535 11.1042 4.05288C11.2138 4.11041 11.3059 4.1962 11.3711 4.30133C11.4363 4.40647 11.4721 4.52714 11.475 4.65081C11.4778 4.77448 11.4475 4.89666 11.3872 5.00467C11.3269 5.11269 11.2388 5.20259 11.132 5.26508C11.0252 5.32756 10.9037 5.36034 10.78 5.36001C10.4066 5.36001 10.1066 5.06668 10.0866 4.70001L8.63998 4.39334L8.19998 6.47334C9.21998 6.50668 10.1333 6.82001 10.8 7.30001C10.9022 7.20242 11.0245 7.12834 11.1583 7.08294C11.2921 7.03755 11.4342 7.02195 11.5747 7.03722C11.7152 7.05249 11.8506 7.09828 11.9716 7.17137C12.0925 7.24446 12.196 7.34309 12.2749 7.46036C12.3537 7.57763 12.406 7.71072 12.428 7.8503C12.45 7.98988 12.4413 8.13259 12.4024 8.26845C12.3635 8.4043 12.2954 8.53002 12.2029 8.63681C12.1104 8.7436 11.9956 8.82888 11.8666 8.88668Z" fill="#9CA3AF"/>
</svg>
